<svg width="73" height="72" fill="none" xmlns="http://www.w3.org/2000/svg"><rect opacity=".3" x="2.167" y="1.5" width="69" height="69" rx="34.5" stroke="#1199FA" stroke-width="3"/><path fill-rule="evenodd" clip-rule="evenodd" d="M17.083 31c0-7.41 7.135-12.917 15.417-12.917S47.917 23.591 47.917 31c0 7.41-7.135 12.917-15.417 12.917h-2.833v-2.5H32.5c7.385 0 12.917-4.826 12.917-10.417 0-5.59-5.532-10.417-12.917-10.417S19.583 25.41 19.583 31c0 3.276 1.99 6.25 5.386 8.257l-1.272 2.153c-3.936-2.327-6.614-6.02-6.614-10.41Z" fill="#1199FA"/><path fill-rule="evenodd" clip-rule="evenodd" d="M24.385 38.918a1.25 1.25 0 0 1 1.197 1.3c-.073 1.76-.548 3.145-1.116 4.186 1.387-.314 2.988-1.038 4.2-2.654a1.25 1.25 0 1 1 2 1.5c-1.736 2.315-4.048 3.267-5.873 3.641-.912.187-1.718.234-2.298.234a9.657 9.657 0 0 1-.962-.049l-.02-.002h-.006l-.003-.001h-.001c-.001 0-.002 0 .164-1.24l-.166 1.24a1.25 1.25 0 0 1-.538-2.273s-.001.001 0 0l.002-.002-.002.002m.002-.002.042-.031c.043-.033.114-.091.205-.175.182-.168.439-.436.704-.812.524-.745 1.096-1.933 1.168-3.665a1.25 1.25 0 0 1 1.301-1.197M50.667 30.25a1.25 1.25 0 0 1 1.75-.25c2.314 1.736 3.833 4.773 3.833 7.667 0 4.412-2.868 8.09-6.592 10.396l-1.316-2.126c3.276-2.028 5.408-5.016 5.408-8.27 0-2.107-1.148-4.403-2.833-5.667a1.25 1.25 0 0 1-.25-1.75ZM32.233 47.074a1.25 1.25 0 0 1 1.693-.508c1.933 1.04 4.38 1.517 6.907 1.517h2.833v2.5h-2.833c-2.805 0-5.692-.523-8.092-1.816a1.25 1.25 0 0 1-.508-1.693Z" fill="#1199FA"/><path fill-rule="evenodd" clip-rule="evenodd" d="M48.948 45.584a1.25 1.25 0 0 1 1.3 1.197c.073 1.732.645 2.92 1.17 3.666.265.376.522.644.703.812a3.219 3.219 0 0 0 .247.206l.002.002a1.25 1.25 0 0 1-.538 2.272l-.165-1.239c.165 1.239.164 1.24.164 1.24h-.011l-.02.003a4.862 4.862 0 0 1-.263.024c-.17.013-.407.025-.698.025-.581 0-1.386-.047-2.298-.234-1.825-.374-4.138-1.326-5.874-3.641a1.25 1.25 0 1 1 2-1.5c1.212 1.616 2.813 2.34 4.2 2.654-.567-1.04-1.042-2.426-1.116-4.186a1.25 1.25 0 0 1 1.197-1.3ZM26.917 29.333c0-.69.56-1.25 1.25-1.25h10a1.25 1.25 0 0 1 0 2.5h-10c-.69 0-1.25-.56-1.25-1.25ZM26.917 34.333c0-.69.56-1.25 1.25-1.25h6.666a1.25 1.25 0 0 1 0 2.5h-6.666c-.69 0-1.25-.56-1.25-1.25Z" fill="#1199FA"/></svg>