<svg width="50" height="34" fill="none" xmlns="http://www.w3.org/2000/svg"><g opacity=".9"><g opacity=".5" fill="#67C0FF"><path d="M26.737 12.312c-.261.349-.458.884-.458 1.525 0 .642.197 1.177.458 1.525.26.348.53.452.728.452.198 0 .468-.104.729-.452.26-.348.457-.883.457-1.525 0-.641-.196-1.176-.457-1.525-.261-.347-.53-.451-.729-.451-.198 0-.468.104-.728.451ZM37.349 20.163c0-.642.196-1.177.457-1.525.261-.348.53-.452.729-.452.198 0 .468.104.728.452.261.348.458.883.458 1.525 0 .641-.197 1.177-.458 1.525-.26.347-.53.452-.728.452-.198 0-.468-.105-.729-.452-.26-.348-.457-.884-.457-1.525Z"/><path fill-rule="evenodd" clip-rule="evenodd" d="M33 0c-9.389 0-17 7.611-17 17s7.611 17 17 17 17-7.611 17-17S42.389 0 33 0Zm4.264 9.534a1.186 1.186 0 1 0-2.203-.881l-6.325 15.813a1.186 1.186 0 0 0 2.202.881l6.326-15.813Zm-12.425 1.355c.598-.797 1.514-1.4 2.626-1.4 1.112 0 2.029.603 2.626 1.4.598.797.932 1.843.932 2.948s-.334 2.152-.932 2.948c-.598.797-1.514 1.401-2.626 1.401-1.112 0-2.028-.604-2.626-1.4-.598-.797-.932-1.844-.932-2.949 0-1.105.334-2.151.932-2.948Zm13.696 4.925c-1.112 0-2.028.604-2.626 1.4-.598.797-.932 1.844-.932 2.949 0 1.105.334 2.151.932 2.948.598.797 1.514 1.4 2.626 1.4 1.112 0 2.028-.603 2.626-1.4.597-.797.932-1.843.932-2.948s-.335-2.152-.932-2.948c-.598-.797-1.514-1.401-2.626-1.401Z"/></g></g><g fill="#9CE4D9"><path d="M10.737 12.312c-.261.349-.458.884-.458 1.525 0 .642.197 1.177.458 1.525.26.348.53.452.728.452.198 0 .468-.104.729-.452.26-.348.457-.883.457-1.525 0-.641-.196-1.176-.457-1.525-.261-.347-.53-.451-.729-.451-.198 0-.468.104-.728.451ZM21.349 20.163c0-.642.196-1.177.457-1.525.261-.348.53-.452.729-.452.198 0 .468.104.728.452.261.348.458.883.458 1.525 0 .641-.197 1.177-.458 1.525-.26.347-.53.452-.728.452-.198 0-.468-.105-.729-.452-.26-.348-.457-.884-.457-1.525Z"/><path fill-rule="evenodd" clip-rule="evenodd" d="M17 0C7.611 0 0 7.611 0 17s7.611 17 17 17 17-7.611 17-17S26.389 0 17 0Zm4.264 9.534a1.186 1.186 0 1 0-2.203-.881l-6.325 15.813a1.186 1.186 0 0 0 2.202.881l6.326-15.813ZM8.839 10.889c.598-.797 1.514-1.4 2.626-1.4 1.112 0 2.028.603 2.626 1.4.598.797.932 1.843.932 2.948s-.334 2.152-.932 2.948c-.598.797-1.514 1.401-2.626 1.401-1.112 0-2.028-.604-2.626-1.4-.598-.797-.932-1.844-.932-2.949 0-1.105.334-2.151.932-2.948Zm13.696 4.925c-1.112 0-2.029.604-2.626 1.4-.598.797-.932 1.844-.932 2.949 0 1.105.334 2.151.932 2.948.598.797 1.514 1.4 2.626 1.4 1.112 0 2.028-.603 2.626-1.4.598-.797.932-1.843.932-2.948s-.334-2.152-.932-2.948c-.598-.797-1.514-1.401-2.626-1.401Z"/></g></svg>